<?xml version="1.0" encoding="UTF-8" standalone="no"?>
<svg
   version="1"
   width="380"
   height="380"
   viewBox="0 0 285 285"
   class="edp-unblock"
   id="svg1"
   sodipodi:docname="ED.svg"
   xml:space="preserve"
   inkscape:version="1.4.4 (dcaf3e7d9e, 2026-05-05)"
   inkscape:export-filename="../Documents/ed/ED Privacy Protect/ED Privacy Protect/icons/icon_ink.svg"
   inkscape:export-xdpi="8.0842104"
   inkscape:export-ydpi="8.0842104"
   xmlns:inkscape="http://www.inkscape.org/namespaces/inkscape"
   xmlns:sodipodi="http://sodipodi.sourceforge.net/DTD/sodipodi-0.dtd"
   xmlns:xlink="http://www.w3.org/1999/xlink"
   xmlns="http://www.w3.org/2000/svg"
   xmlns:svg="http://www.w3.org/2000/svg"><defs
     id="defs1"><linearGradient
       id="linearGradient1"
       inkscape:collect="always"><stop
         style="stop-color:#0e468c;stop-opacity:1;"
         offset="0"
         id="stop1" /><stop
         style="stop-color:#0f8bcd;stop-opacity:1;"
         offset="1"
         id="stop2" /></linearGradient><linearGradient
       inkscape:collect="always"
       xlink:href="#linearGradient1"
       id="linearGradient2"
       x1="7.847856"
       y1="-5.9581165"
       x2="7.847856"
       y2="30.195389"
       gradientUnits="userSpaceOnUse" /></defs><sodipodi:namedview
     id="namedview1"
     pagecolor="#ffffff"
     bordercolor="#000000"
     borderopacity="0.25"
     inkscape:showpageshadow="2"
     inkscape:pageopacity="0.0"
     inkscape:pagecheckerboard="0"
     inkscape:deskcolor="#d1d1d1"
     inkscape:zoom="1.6468145"
     inkscape:cx="168.81076"
     inkscape:cy="188.54583"
     inkscape:window-width="1920"
     inkscape:window-height="1129"
     inkscape:window-x="0"
     inkscape:window-y="0"
     inkscape:window-maximized="1"
     inkscape:current-layer="g1"><inkscape:page
       x="0"
       y="0"
       width="285"
       height="285"
       id="page2"
       margin="0"
       bleed="0" /></sodipodi:namedview><g
     style="fill:none"
     id="g1"
     transform="matrix(6.3220339,0,0,6.3220339,92.885593,65.885593)"><path
       opacity="0.5"
       d="M -9.4706347,-1.7755377 C -10.228894,-0.69521091 -10.228894,2.516003 -10.228894,8.9385313 V 12.10136 c 0,11.324078 8.5140682,16.819611 13.8559484,19.153118 1.4490321,0.632887 2.1735081,0.949431 4.2208003,0.949431 2.0472922,0 2.7717683,-0.316544 4.2207193,-0.949431 5.341881,-2.333507 13.85603,-7.82904 13.85603,-19.153118 V 8.9385313 c 0,-6.4225283 0,-9.63374221 -0.758219,-10.714069 -0.758219,-1.0803268 -3.777639,-2.1138749 -9.816478,-4.1809913 l -1.150485,-0.393812 c -3.147966,-1.0775349 -4.721848,-1.6163023 -6.3515673,-1.6163023 -1.6297193,0 -3.2036016,0.5387674 -6.3515268,1.6163023 L 0.34582313,-5.956529 C -5.692996,-3.8894126 -8.7123955,-2.8558645 -9.4706347,-1.7755377 Z"
       fill="#1c274c"
       id="path1-3"
       style="opacity:0.799311;mix-blend-mode:normal;fill:url(#linearGradient2);stroke-width:2.00853" /><path
       d="m 6.0977752,3.9940793 c -3.3868533,0.3929499 -6.46496047,1.7121384 -8.4577787,3.6113959 -1.1882058,1.1320717 -1.8244103,2.1144453 -2.2454282,3.4897708 -0.1871189,0.580069 -0.2245427,0.888815 -0.2151869,1.824411 0.00936,0.776543 0.056136,1.253696 0.1684072,1.543731 l 0.1496953,0.421018 -0.04678,-0.402306 c -0.056136,-0.477154 0.037424,-1.347258 0.1403392,-1.281766 0.037424,0.02807 0.1871191,-0.280677 0.3274584,-0.682984 0.9168831,-2.6290221 3.42427763,-4.8183141 6.932759,-6.0345872 4.6218381,-1.6092253 9.9921525,-0.9168838 12.5743975,1.609223 2.591596,2.5448182 1.581154,5.5855022 -2.984549,8.9255752 -0.608138,0.449087 -0.851392,0.542646 -0.851392,0.308749 0,-0.06549 -0.0842,-0.336815 -0.196474,-0.589426 L 11.206124,16.269087 9.5033403,16.624611 C 6.7059106,17.195326 5.2276717,17.288884 4.6850261,16.93336 4.4885499,16.802376 4.4698383,16.746241 4.5259756,16.30651 4.554042,16.035188 4.7130947,15.558034 4.8627882,15.239931 5.4522142,14.014303 6.6217069,13.537149 8.3806256,13.808472 l 0.8046115,0.130982 0.2619682,-0.327458 c 0.1403387,-0.177762 0.4584419,-0.692339 0.7016957,-1.150781 0.34617,-0.645561 0.421017,-0.870104 0.34617,-0.991731 -0.06549,-0.09356 -0.06549,-0.20583 -0.0093,-0.308746 0.06549,-0.121627 0.04678,-0.177764 -0.06549,-0.215188 -0.196476,-0.0842 -1.5905114,0.102916 -3.115533,0.402307 -0.6829865,0.130982 -1.2630555,0.224543 -1.2911218,0.196474 -0.018705,-0.02807 0.028066,-0.364881 0.11227,-0.739119 0.1964761,-0.8701037 0.514577,-1.2256303 1.2349871,-1.3846807 0.8888152,-0.1871191 2.6758007,-0.074849 3.4804117,0.2245424 0.83268,0.3087462 0.907527,0.2993892 1.375326,-0.1964761 0.598781,-0.636204 1.132069,-1.4595272 0.991731,-1.5063075 -0.07485,-0.028069 -0.102916,-0.1309841 -0.06549,-0.2713229 0.02807,-0.121627 0.0187,-0.2245424 -0.0187,-0.2245424 -0.04678,-0.00935 -1.974107,-0.00935 -4.2943805,-0.018705 L 4.6289026,7.4090153 4.3762915,7.7551849 C 3.4968333,8.9621033 1.2888296,15.642252 1.0362185,17.831544 c -0.0935607,0.83268 -0.0561374,0.99173 0.2900345,1.234984 0.2900345,0.205831 0.3835929,0.215188 2.9658348,0.261968 2.4699718,0.04678 2.6290222,0.05613 2.1050882,0.168408 -0.3087462,0.06549 -1.085289,0.149693 -1.73085,0.177762 -1.3191885,0.06549 -1.2443418,0.140339 0.3555265,0.327458 0.5239317,0.05614 0.9075269,0.140339 0.8420349,0.177764 -0.2338995,0.149694 0.8607465,0.196474 2.0676649,0.09356 2.3670567,-0.196474 4.5563487,-0.823324 6.6520797,-1.899258 1.627937,-0.823323 2.816141,-1.674715 3.929499,-2.788073 0.926241,-0.92624 1.347257,-1.543733 1.758919,-2.544818 0.327458,-0.813969 0.327458,-1.908615 0,-2.84421 C 19.214827,7.1751159 14.873666,4.5367389 10.045998,3.9847363 9.0729786,3.8818209 7.0708058,3.8818209 6.0977868,3.9940886 Z"
       id="path1"
       style="fill:#ffffff;stroke-width:0.0935596" /></g></svg>
